<?xml version="1.0" encoding="UTF-8"?>
<svg width="14px" height="18px" viewBox="0 0 14 18" version="1.1" xmlns="http://www.w3.org/2000/svg" xmlns:xlink="http://www.w3.org/1999/xlink">
    <!-- Generator: Sketch 47.1 (45422) - http://www.bohemiancoding.com/sketch -->
    <title>range-number-arrow</title>
    <desc>Created with Sketch.</desc>
    <defs></defs>
    <g id="More-Tiles" stroke="none" stroke-width="1" fill="none" fill-rule="evenodd">
        <g id="range-number-arrow" fill="#636363">
            <g id="Group-2" transform="translate(3.500000, 2.500000)">
                <g id="Group">
                    <path d="M3.95229828,8.09809158 L7.44719186,12.5858701 L7.44719186,12.5858701 C7.53420211,12.6975996 7.51416319,12.85871 7.4024337,12.9457202 C7.35740382,12.9807876 7.30196144,12.9998292 7.24488771,12.9998292 L0.255100551,12.9998292 L0.255100551,12.9998292 C0.113487476,12.9998292 -0.00131260296,12.8850291 -0.00131260296,12.7434161 C-0.00131260296,12.6863423 0.017729025,12.6309 0.0527964016,12.5858701 L3.54768998,8.09809158 L3.54768998,8.09809158 C3.63470023,7.98636208 3.79581062,7.96632317 3.90754012,8.05333341 C3.9242508,8.06634699 3.9392847,8.0813809 3.95229828,8.09809158 Z" id="Triangle" transform="translate(3.750000, 10.499915) scale(1, -1) translate(-3.750000, -10.499915) "></path>
                    <path d="M3.95229828,0.0980915807 L7.44719186,4.58587008 L7.44719186,4.58587008 C7.53420211,4.69759957 7.51416319,4.85870997 7.4024337,4.94572021 C7.35740382,4.98078759 7.30196144,4.99982922 7.24488771,4.99982922 L0.255100551,4.99982922 L0.255100551,4.99982922 C0.113487476,4.99982922 -0.00131260296,4.88502914 -0.00131260296,4.74341606 C-0.00131260296,4.68634233 0.017729025,4.63089995 0.0527964016,4.58587008 L3.54768998,0.0980915807 L3.54768998,0.0980915807 C3.63470023,-0.0136379159 3.79581062,-0.0336768297 3.90754012,0.0533334139 C3.9242508,0.0663469908 3.9392847,0.0813809 3.95229828,0.0980915807 Z" id="Triangle-Copy"></path>
                </g>
            </g>
        </g>
    </g>
</svg>