<?xml version="1.0" encoding="UTF-8"?>
<svg width="50px" height="50px" viewBox="0 0 50 50" version="1.1" xmlns="http://www.w3.org/2000/svg" xmlns:xlink="http://www.w3.org/1999/xlink">
    <!-- Generator: Sketch 47.1 (45422) - http://www.bohemiancoding.com/sketch -->
    <title>marble2</title>
    <desc>Created with Sketch.</desc>
    <defs></defs>
    <g id="More-Tiles" stroke="none" stroke-width="1" fill="none" fill-rule="evenodd">
        <g id="marble2">
            <circle id="Oval-5" fill="#FF8B22" cx="15.3861386" cy="15.3861386" r="11.3861386"></circle>
            <path d="M17.6487921,17.9339406 L13.910495,17.9339406 L12.9923168,21 L11.2871287,21 L14.8450693,10.2605941 L16.779802,10.2605941 L20.3377426,21 L18.5669703,21 L17.6487921,17.9339406 Z M17.2552871,16.6058614 L16.8289901,15.1630099 C16.6759596,14.6492648 16.5038029,14.0535479 16.3125149,13.3758416 C16.1212268,12.6981352 15.9818618,12.206259 15.8944158,11.900198 C15.8834851,11.812752 15.8561586,11.7089115 15.8124356,11.5886733 L15.7468515,11.5886733 C15.3970676,12.9331552 15.0636848,14.1245889 14.7466931,15.1630099 L14.320396,16.6058614 L17.2552871,16.6058614 Z" id="A" fill="#FFFFFF"></path>
            <circle id="Oval-5" stroke="#FFFFFF" stroke-width="0.5" fill="#46C8B2" cx="34.3861386" cy="33.8415842" r="11.3861386"></circle>
            <path d="M31.2417426,28.4883168 L34.5701386,28.4883168 C35.7397286,28.4883168 36.6606303,28.6987306 37.3328713,29.1195644 C38.0051123,29.5403981 38.3412277,30.2098964 38.3412277,31.1280792 C38.3412277,31.6636858 38.2045954,32.1446315 37.9313267,32.5709307 C37.658058,32.9972299 37.2864182,33.2923556 36.816396,33.4563168 L36.816396,33.521901 C37.4613102,33.6640007 37.9750476,33.9509285 38.3576238,34.3826931 C38.7401999,34.8144576 38.9314851,35.3801153 38.9314851,36.0796832 C38.9314851,37.1071735 38.5571127,37.8887102 37.8083564,38.4243168 C37.0596002,38.9599235 36.0676497,39.2277228 34.8324752,39.2277228 L31.2417426,39.2277228 L31.2417426,28.4883168 Z M34.3733861,32.9808317 C35.9255523,32.9808317 36.7016238,32.4397678 36.7016238,31.3576238 C36.7016238,30.8001556 36.5158038,30.4011893 36.1441584,30.1607129 C35.772513,29.9202364 35.1986573,29.8 34.4225743,29.8 L32.9141386,29.8 L32.9141386,32.9808317 L34.3733861,32.9808317 Z M34.6357228,37.9160396 C35.4992518,37.9160396 36.1578195,37.7575461 36.6114455,37.4405545 C37.0650716,37.1235628 37.2918812,36.6426171 37.2918812,35.997703 C37.2918812,34.828113 36.4065039,34.2433267 34.6357228,34.2433267 L32.9141386,34.2433267 L32.9141386,37.9160396 L34.6357228,37.9160396 Z" id="B" fill="#FFFFFF"></path>
        </g>
    </g>
</svg>