<?xml version="1.0" encoding="UTF-8"?>
<svg width="50px" height="50px" viewBox="0 0 50 50" version="1.1" xmlns="http://www.w3.org/2000/svg" xmlns:xlink="http://www.w3.org/1999/xlink">
    <!-- Generator: Sketch 47.1 (45422) - http://www.bohemiancoding.com/sketch -->
    <title>marble3</title>
    <desc>Created with Sketch.</desc>
    <defs></defs>
    <g id="More-Tiles" stroke="none" stroke-width="1" fill="none" fill-rule="evenodd">
        <g id="marble3">
            <circle id="Oval-5" fill="#FF8B22" cx="12.3861386" cy="13.8861386" r="11.3861386"></circle>
            <path d="M14.6487921,16.4339406 L10.910495,16.4339406 L9.99231683,19.5 L8.28712871,19.5 L11.8450693,8.76059406 L13.779802,8.76059406 L17.3377426,19.5 L15.5669703,19.5 L14.6487921,16.4339406 Z M14.2552871,15.1058614 L13.8289901,13.6630099 C13.6759596,13.1492648 13.5038029,12.5535479 13.3125149,11.8758416 C13.1212268,11.1981352 12.9818618,10.706259 12.8944158,10.400198 C12.8834851,10.312752 12.8561586,10.2089115 12.8124356,10.0886733 L12.7468515,10.0886733 C12.3970676,11.4331552 12.0636848,12.6245889 11.7466931,13.6630099 L11.320396,15.1058614 L14.2552871,15.1058614 Z" id="A" fill="#FFFFFF"></path>
            <circle id="Oval-5" stroke="#FFFFFF" stroke-width="0.5" fill="#46C8B2" cx="37.3861386" cy="13.8415842" r="11.3861386"></circle>
            <path d="M34.2417426,8.48831683 L37.5701386,8.48831683 C38.7397286,8.48831683 39.6606303,8.69873057 40.3328713,9.11956436 C41.0051123,9.54039814 41.3412277,10.2098964 41.3412277,11.1280792 C41.3412277,11.6636858 41.2045954,12.1446315 40.9313267,12.5709307 C40.658058,12.9972299 40.2864182,13.2923556 39.816396,13.4563168 L39.816396,13.521901 C40.4613102,13.6640007 40.9750476,13.9509285 41.3576238,14.3826931 C41.7401999,14.8144576 41.9314851,15.3801153 41.9314851,16.0796832 C41.9314851,17.1071735 41.5571127,17.8887102 40.8083564,18.4243168 C40.0596002,18.9599235 39.0676497,19.2277228 37.8324752,19.2277228 L34.2417426,19.2277228 L34.2417426,8.48831683 Z M37.3733861,12.9808317 C38.9255523,12.9808317 39.7016238,12.4397678 39.7016238,11.3576238 C39.7016238,10.8001556 39.5158038,10.4011893 39.1441584,10.1607129 C38.772513,9.92023642 38.1986573,9.8 37.4225743,9.8 L35.9141386,9.8 L35.9141386,12.9808317 L37.3733861,12.9808317 Z M37.6357228,17.9160396 C38.4992518,17.9160396 39.1578195,17.7575461 39.6114455,17.4405545 C40.0650716,17.1235628 40.2918812,16.6426171 40.2918812,15.997703 C40.2918812,14.828113 39.4065039,14.2433267 37.6357228,14.2433267 L35.9141386,14.2433267 L35.9141386,17.9160396 L37.6357228,17.9160396 Z" id="B" fill="#FFFFFF"></path>
            <circle id="Oval-5" fill="#009CDE" cx="24.3861386" cy="36.3415842" r="11.3861386"></circle>
            <path d="M22.5242772,41.2686337 C21.8028479,40.8314038 21.2344575,40.1946973 20.8190891,39.358495 C20.4037207,38.5222928 20.1960396,37.5303424 20.1960396,36.3826139 C20.1960396,35.2458161 20.409186,34.2565983 20.8354851,33.4149307 C21.2617843,32.5732631 21.8438379,31.925626 22.5816634,31.472 C23.3194888,31.018374 24.1420153,30.7915644 25.0492673,30.7915644 C25.6723199,30.7915644 26.2434429,30.9172661 26.7626535,31.1686733 C27.281864,31.4200805 27.72182,31.7425327 28.0825347,32.1360396 L27.1807525,33.2181782 C26.5576999,32.5732641 25.8581425,32.2508119 25.0820594,32.2508119 C24.4590068,32.2508119 23.909745,32.4175033 23.4342574,32.7508911 C22.9587699,33.0842789 22.5871301,33.5570266 22.3193267,34.1691485 C22.0515234,34.7812704 21.9176238,35.5026889 21.9176238,36.3334257 C21.9176238,37.6123232 22.1990863,38.6206696 22.7620198,39.358495 C23.3249533,40.0963205 24.0818962,40.4652277 25.0328713,40.4652277 C25.9291926,40.4652277 26.7216599,40.0826573 27.410297,39.317505 L28.3120792,40.3668515 C27.4266886,41.4052725 26.3117691,41.9244752 24.9672871,41.9244752 C24.0600351,41.9244752 23.2457066,41.7058636 22.5242772,41.2686337 Z" id="C" fill="#FFFFFF"></path>
        </g>
    </g>
</svg>